/* XPM */
static char *cd2364593d7346f6a01883bd66e2bea7KolekwQbETN4hasD[] = {
/* columns rows colors chars-per-pixel */
"60 60 154 2 ",
"   c None",
".  c gray3",
"X  c #090909",
"o  c gray4",
"O  c #0B0B0B",
"+  c #0C0C0C",
"@  c gray5",
"#  c #0E0E0E",
"$  c gray6",
"%  c #101010",
"&  c #111111",
"*  c gray7",
"=  c #131313",
"-  c gray8",
";  c #151515",
":  c #161616",
">  c gray9",
",  c #181818",
"<  c #191919",
"1  c gray10",
"2  c #1B1B1B",
"3  c gray11",
"4  c #1D1D1D",
"5  c #1E1E1E",
"6  c gray12",
"7  c #202020",
"8  c gray13",
"9  c #222222",
"0  c #232323",
"q  c gray14",
"w  c #252525",
"e  c gray15",
"r  c #272727",
"t  c #282828",
"y  c gray16",
"u  c #2A2A2A",
"i  c gray17",
"p  c #2C2C2C",
"a  c #2D2D2D",
"s  c gray18",
"d  c #2F2F2F",
"f  c gray19",
"g  c #313131",
"h  c #323232",
"j  c gray20",
"k  c #343434",
"l  c #353535",
"z  c gray21",
"x  c #373737",
"c  c gray22",
"v  c #393939",
"b  c #3A3A3A",
"n  c gray23",
"m  c #3C3C3C",
"M  c gray24",
"N  c #3E3E3E",
"B  c #3F3F3F",
"V  c gray25",
"C  c #414141",
"Z  c gray26",
"A  c #434343",
"S  c #444444",
"D  c gray27",
"F  c #464646",
"G  c gray28",
"H  c #484848",
"J  c #494949",
"K  c gray29",
"L  c #4B4B4B",
"P  c #4C4C4C",
"I  c gray30",
"U  c #4E4E4E",
"Y  c gray31",
"T  c #505050",
"R  c #515151",
"E  c gray32",
"W  c #535353",
"Q  c gray33",
"!  c #555555",
"~  c #565656",
"^  c gray34",
"/  c #585858",
"(  c gray35",
")  c #5A5A5A",
"_  c #5B5B5B",
"`  c gray36",
"'  c #5D5D5D",
"]  c gray37",
"[  c #5F5F5F",
"{  c #606060",
"}  c gray38",
"|  c #626262",
" . c gray39",
".. c #646464",
"X. c #656565",
"o. c gray40",
"O. c #676767",
"+. c #686868",
"@. c DimGray",
"#. c #6A6A6A",
"$. c gray42",
"%. c #6C6C6C",
"&. c #6D6D6D",
"*. c gray43",
"=. c #6F6F6F",
"-. c gray44",
";. c #717171",
":. c #727272",
">. c gray45",
",. c #747474",
"<. c gray46",
"1. c #767676",
"2. c #777777",
"3. c gray47",
"4. c #797979",
"5. c gray48",
"6. c #7B7B7B",
"7. c #7C7C7C",
"8. c gray49",
"9. c #7E7E7E",
"0. c gray50",
"q. c #808080",
"w. c #818181",
"e. c gray51",
"r. c #838383",
"t. c #848484",
"y. c gray52",
"u. c #868686",
"i. c gray53",
"p. c #888888",
"a. c #898989",
"s. c gray54",
"d. c #8B8B8B",
"f. c gray55",
"g. c #8D8D8D",
"h. c #8E8E8E",
"j. c gray56",
"k. c #909090",
"l. c gray57",
"z. c #929292",
"x. c #939393",
"c. c gray58",
"v. c #959595",
"b. c gray59",
"n. c #979797",
"m. c #989898",
"M. c gray60",
"N. c #9A9A9A",
"B. c #9B9B9B",
"V. c gray61",
"C. c #9D9D9D",
"Z. c gray62",
"A. c #9F9F9F",
"S. c #A0A0A0",
/* pixels */
"                                                                                                                        ",
"                                                q.q.q.| O.O.O.O.O.1.q.0.                                                ",
"                                        O.j.m.m.m.m.j.A A A A B B 1.m.m.m.m.x.@.                                        ",
"                                    B H 3.q.1.@.| | j.c.c.m.m.c.c.x.*.O.*.1.q.i.I x                                     ",
"                                3.i.0.A s 8 8 y s ` C.S.S.S.S.S.S.C.q.s y 8 < w x 1.i.3.                                ",
"                            x.c.m.x.E 3 w s j B B 3.C.C.m.m.m.m.C.C.x.I c j s w 3 c i.m.c.x.                            ",
"                          j.m.m.c.-.| -.0.i.j.x.j.*./ Q Q E E E / / | a.j.a.i.0.-.` | x.c.m.j.                          ",
"                        i.i.-.O.i.m.m.C.C.C.C.C.m.Q y y y y y y y y j i.C.C.C.C.C.m.m.a.@.3.a.i.                        ",
"                    / H H j 8 Q c.C.C.C.C.C.C.C.c.H y y y y w y y y y 1.C.C.C.C.C.C.C.m.*.< y F E /                     ",
"                  i./ 8 : < j i.m.C.C.C.C.C.C.C.j.j w w w w w w w y y | m.C.C.C.C.C.C.C.x.A < : < I i.                  ",
"                j.-.w : < w ` c.m.c.x.x.j.i.i.0.q.q.q.i.i.i.i.i.i.q.q.q.q.i.i.j.x.x.c.m.m.3.w < : < *.                  ",
"                0.j c I @.0.@.` Q H A c j s s j q.C.C.C.C.C.C.C.C.C.C.m.Q w s j c A F Q O.@.3.O.E x j 3.                ",
"              a.0.q.j.x.m.x.E y y y w w w w w j a.C.C.C.m.C.C.C.m.m.C.m.@.w w w w w y y y j i.m.x.a.0.-.a.              ",
"            ` 1.x.x.c.c.m.i.j y w w w w w 8 w c x.C.C.m.m.m.m.m.m.m.m.m.-.w 8 w w w w w y y @.c.c.c.x.x.0.|             ",
"          w A a.x.x.c.c.c.*.y w w w w w 8 8 8 A c.m.m.m.m.m.m.m.m.m.m.m.0.8 8 w w w w w y y F j.c.c.x.x.j.I w           ",
"          8 @.j.x.x.c.c.x.F w w w w y s s j x / x.c.c.c.c.c.c.c.c.c.c.c.i.x s s s y w w y w s q.c.c.x.x.j.1.8           ",
"        w x q.j.x.j.j.j.i.*.-.3.0.i.i.a.j.j.x.i.E H F F A A A A A F H H @.j.j.j.a.i.q.0.3.*.O.3.j.j.x.j.j.a.H w         ",
"        j I 3.@.` H B c 0.c.c.c.m.m.c.m.m.m.m.a.s 8 8 8 8 8 8 8 8 8 8 8 Q c.m.m.c.m.m.m.c.c.c.a.E B F / @.3.| w         ",
"      O.-.Q 8 * $ * < c a.c.c.c.c.c.c.c.m.m.c.i.w 8 8 8 8 8 8 8 8 8 8 8 I c.m.m.c.c.c.c.c.c.c.x.` < $ * * * H 1.@.      ",
"      0.0.x * $ $ $ < A j.c.c.c.c.c.c.c.c.c.c.q.w 8 8 8 8 8 8 8 8 8 8 8 A x.c.c.c.c.c.c.c.c.c.x.-.< $ $ $ * w 1.q.      ",
"      q.1.< * $ $ $ < I x.c.c.c.c.c.c.c.c.c.m.3.8 8 8 8 8 8 8 8 8 8 8 8 x j.c.c.c.c.c.c.c.x.x.x.0.< $ $ $ $ * | q.      ",
"    0.0.| * $ $ $ $ : ` x.x.c.x.c.c.c.c.c.c.m.1.8 8 8 8 8 8 8 8 8 8 8 8 x a.c.c.c.c.c.c.x.x.x.x.q.y $ $ $ $ * H q.0.    ",
"    0.0.I * $ 3 3 w j O.a.a.a.i.i.i.q.q.q.0.0.1.*.-.-.-.-.-.-.-.-.-.-.*.@.3.q.q.q.i.i.i.i.i.i.a.q.F w 3 : : * j 3.q.    ",
"    -.*.O.@.-.1.0.q.q.` c x j s y s w w w w s 0.c.c.c.c.c.c.c.c.c.c.c.c.c.` w w w w s s j x j c F 3.q.0.1.-.O.` *.1.    ",
"  B y c 0.q.i.i.i.a.i./ 3 8 8 8 8 8 8 8 8 8 y 0.c.c.c.c.c.c.c.c.c.c.c.x.x.| 8 8 8 8 8 8 8 8 8 3 s 3.a.i.i.i.q.q.` s     ",
"  w < H 0.q.i.i.i.i.i.I 3 8 8 8 8 8 8 8 8 8 s q.x.x.x.c.c.c.c.c.c.x.x.x.x.@.8 8 8 8 8 3 3 3 3 3 8 -.i.i.i.i.q.q.@.< w   ",
"  8 < Q 0.q.q.q.i.i.q.A < 3 3 8 3 8 3 8 8 8 y 0.x.x.x.x.x.x.x.x.x.x.x.x.x.O.3 3 8 8 3 3 3 3 3 < < *.i.i.i.q.q.q.*.< w   ",
"  8 < Q 0.0.q.i.i.i.q.c * 3 3 3 3 3 3 3 3 8 y 0.x.x.x.x.x.x.x.x.x.x.x.x.j.@.3 3 8 8 3 3 3 3 < : : | i.q.q.q.q.q.*.3 8   ",
"  w 3 / 0.0.q.q.q.q.0.x $ : 3 3 3 3 3 3 3 3 y 0.j.x.j.x.j.x.x.x.j.j.j.j.j.@.3 3 8 3 3 3 3 3 < * O ` i.q.q.q.0.0.-.8 8   ",
"  H H / @.@.@.*.*.*.*./ E Q / / / ` ` ` ` ` | -.3.3.3.3.3.3.3.3.3.3.3.3.3.@./ / / / / / / Q E E I | -.-.-.*.*.*.O.H F   ",
"  -.1./ : : : * * * j 3.q.i.i.i.a.a.a.a.a.a.a.Q w w w w 8 8 w w w w 8 w y *.a.a.a.a.i.i.i.i.q.q.q.O.* * : : : : A 1.1.  ",
"  -.1.` * $ $ $ O $ s 3.q.q.i.a.a.a.a.a.a.a.a./ 3 3 3 3 3 3 3 3 3 3 3 3 8 @.a.i.i.a.i.i.i.i.q.q.q.O.O O $ $ $ * A 1.1.  ",
"  -.1.| * $ $ $ O O y 1.q.q.q.i.i.i.i.i.i.a.i./ 3 3 3 3 3 3 3 3 3 3 3 3 8 @.i.i.i.i.i.i.q.q.q.q.q.| O O $ $ $ $ A 1.1.  ",
"  -.-.| * $ $ $ O O 8 -.0.q.q.q.q.i.i.i.i.i.i.` 3 3 3 3 3 3 3 3 3 3 3 3 w @.i.i.i.i.i.q.q.q.q.q.0.` O O $ $ $ * F 1.1.  ",
"  *.-.@.: $ $ $ O O 8 @.0.0.0.q.q.q.q.q.i.i.q./ < < < 3 < < < 3 < 3 < < w @.i.i.q.q.q.q.q.0.0.0.0.Q O $ $ $ $ * I 1.1.  ",
"  E / ` c y w : : * < O.0.0.0.0.0.0.0.q.q.q.q.` : : : < : : : < : : : : 8 @.q.q.q.q.q.0.0.0.0.0.3.H * : < 8 y x E ` /   ",
"    3 j @.-.*.@.@.O.| ` / / | | O.O.@.@.*.-.*.| F F F F A F A A F F F F F | *.*.@.@.O.O.O.` ` Q / O.@.@.*.*.-.-.F 8     ",
"    8 y | 1.1.1.1.1.1.| O O O O O * * * * : < ` 0.0.0.0.3.3.3.3.3.3.3.0.3.H < * * * * * O O O O j -.3.3.3.3.1.*.j 8     ",
"    8 3 E -.1.1.1.1.3.@.O O O O O O O O O O O Q 0.0.0.0.0.0.0.0.0.0.0.0.3.F O O O O O O O O O O c 1.3.3.1.1.1.@.8 w     ",
"      3 A -.-.1.1.1.1.*.3 O O O O O O O O O O I 3.3.0.3.3.3.3.3.3.3.3.3.1.B O O O . O O O O O O A 1.1.1.1.1.-./ 8       ",
"      j j @.-.-.-.1.1.*.j O O O O O O O O O O F 3.3.3.3.3.3.3.3.3.3.3.3.-.x O O O O O O O O O * E 1.1.1.1.-.*.H s       ",
"      ` / | O.*.-.-.-.*.F O O O O O O O O O O A 1.3.3.3.3.1.1.1.3.3.3.3.*.y O O O O O O O O O < | 1.-.-.*.@.| | @.      ",
"        @.` 8 j B F E / I c j y 8 3 : * * * * B 1.1.1.1.1.1.1.1.1.1.1.1.@.w * * * < 3 w w j c A / E F c j 8 H *.        ",
"        O.O.c * $ $ $ $ B *.*.*.*.@.O.O.O.| ` ` I I I E E I I I I I H H Q | O.O.@.@.@.*.*.*.*.O.3 $ $ $ * w | *.        ",
"          @.Q : * $ $ $ w @.-.-.-.-.-.-.-.-.-.@.y O O O O O O O O O O O A -.1.-.1.-.-.-.-.-.-.Q $ $ $ * * A @.          ",
"          | | x * * $ $ * Q -.*.-.-.-.-.-.-.-.@.j O O O O O O O O O O O A -.-.-.-.-.-.-.-.-.*.c $ $ * * 8 Q @.          ",
"            F c y : * $ $ B *.*.*.-.*.*.*.*.*.@.c O O O O O O O O O O * I -.-.-.-.*.-.*.*.*.| 3 $ * * w x F             ",
"              s E Q H c j x | @.*.*.*.*.*.*.*.@.H O O O O O O O O O O : Q -.-.*.*.*.*.*.*.@.Q w c I / / x               ",
"              w B | @.@.O.| / A I Q / ` | | O.O.E 3 < < * : * : : < 3 y / @.O.| ` / E H A H | O.O.O.O.I                 ",
"                w H O.O.@.@.` 3 $ O * * 3 < 8 8 A | O.| | | | | | | O.` s 8 3 3 * * O $ $ A O.O.O.O./ j                 ",
"                  B / | O.O.O.H $ $ $ O O O O O j @.@.@.@.@.@.@.@.@.@.| : O O O $ $ $ $ y ` O.O.O.` E                   ",
"                    / E E ` O.` w $ $ $ $ $ O O w O.@.@.@.@.@.@.@.@.@./ * O O $ $ $ $ : F | ` Q I `                     ",
"                      E c w x A x j y 3 * * * O 3 / O.O.O.O.O.O.@.O.O.I $ $ : : 3 8 j j B x s j E                       ",
"                          c 3 : 3 I ` ` / Q E I I I I I E E E E E E I E I E Q / / | / c : 3 y                           ",
"                            j y 3 s Q | | | | | | Q $ $ * * * * * $ y | | | | | | ` A w s c                             ",
"                                H F F / / ` | ` | / 3 * $ * $ $ * * c | | | | ` / Q H I                                 ",
"                                    / Q A x c A F H c x x j j j x x A H A c x B E `                                     ",
"                                        H x w 8 3 < x ` ` ` / ` ` E 3 3 8 w y F                                         ",
"                                                H F F E H I I I I E H H                                                 ",
"                                                                                                                        "
};
