/* XPM */
static char *_3297399ef59426dbed3f27b75840a443C4XT026UCmCVrc2[] = {
/* columns rows colors chars-per-pixel */
"60 60 244 2 ",
"   c None",
".  c #39383B",
"X  c #542E1D",
"o  c #703016",
"O  c #571228",
"+  c #6F1731",
"@  c #473837",
"#  c #513030",
"$  c #6B2E2F",
"%  c #5C1D1F",
"&  c #355A17",
"*  c #326B17",
"=  c #175B33",
"-  c #375729",
";  c #394638",
":  c #295838",
">  c #3A5638",
",  c #2D5728",
"<  c #176638",
"1  c #15682F",
"2  c #2A6938",
"3  c #336B2D",
"4  c #15661A",
"5  c #4F5019",
"6  c #72590C",
"7  c #6D5110",
"8  c #4A7413",
"9  c #68671A",
"0  c #544626",
"q  c #495928",
"w  c #595829",
"e  c #484839",
"r  c #534836",
"t  c #475838",
"y  c #545937",
"u  c #4A4529",
"i  c #664727",
"p  c #67493A",
"a  c #68573A",
"s  c #785639",
"d  c #724F2D",
"f  c #4A6239",
"g  c #546F2F",
"h  c #666637",
"j  c #716F32",
"k  c #2E1752",
"l  c #163356",
"z  c #372B47",
"x  c #2C3749",
"c  c #383945",
"v  c #353756",
"b  c #2E2E54",
"n  c #311B72",
"m  c #123369",
"M  c #34316E",
"N  c #1E165C",
"B  c #551950",
"V  c #681748",
"C  c #691957",
"Z  c #751756",
"A  c #70124A",
"S  c #472949",
"D  c #443749",
"F  c #553B47",
"G  c #483757",
"H  c #583857",
"J  c #512652",
"K  c #692658",
"L  c #673857",
"P  c #71304E",
"I  c #48186E",
"U  c #66146B",
"Y  c #563969",
"T  c #513870",
"R  c #6C2964",
"E  c #74376B",
"W  c #6A3971",
"Q  c #6E326B",
"!  c #175051",
"~  c #284547",
"^  c #3A494A",
"/  c #265A48",
"(  c #385748",
")  c #2A4958",
"_  c #374857",
"`  c #2B5658",
"'  c #395657",
"]  c #0C6645",
"[  c #1A6748",
"{  c #186A58",
"}  c #1C7149",
"|  c #36674A",
" . c #256856",
".. c #386857",
"X. c #31734F",
"o. c #0C496B",
"O. c #12516D",
"+. c #374763",
"@. c #375568",
"#. c #30506D",
"$. c #166B76",
"%. c #15676F",
"&. c #266A68",
"*. c #346569",
"=. c #346A72",
"-. c #464747",
";. c #554947",
":. c #485849",
">. c #575948",
",. c #474A58",
"<. c #594959",
"1. c #495956",
"2. c #575657",
"3. c #684947",
"4. c #695747",
"5. c #745849",
"6. c #685A57",
"7. c #735857",
"8. c #704951",
"9. c #4A6549",
"0. c #576647",
"q. c #476659",
"w. c #5B665A",
"e. c #5A7559",
"r. c #4A7455",
"t. c #74674A",
"y. c #66685A",
"u. c #766856",
"i. c #677659",
"p. c #757558",
"a. c #6A6B47",
"s. c #594B67",
"d. c #485867",
"f. c #595766",
"g. c #584678",
"h. c #4A5873",
"j. c #51506F",
"k. c #724769",
"l. c #685867",
"z. c #765866",
"x. c #795777",
"c. c #6B4D72",
"v. c #486669",
"b. c #586669",
"n. c #4A7564",
"m. c #597567",
"M. c #596976",
"N. c #597576",
"B. c #486D74",
"V. c #676766",
"C. c #76676A",
"Z. c #697768",
"A. c #767767",
"S. c #676A77",
"D. c #766779",
"F. c #697676",
"G. c #767778",
"H. c #823C1E",
"J. c #886F1B",
"K. c #865A31",
"L. c #887435",
"P. c #85581A",
"I. c #8B3155",
"U. c #8C2766",
"Y. c #8D3272",
"T. c #8A1D5D",
"R. c #875556",
"E. c #854F51",
"W. c #877646",
"Q. c #886A5B",
"!. c #867958",
"~. c #8A684E",
"^. c #8B476A",
"/. c #874B77",
"(. c #885778",
"). c #8B586D",
"_. c #83666A",
"`. c #877964",
"'. c #856A78",
"]. c #857877",
"[. c #73833B",
"{. c #2E8D52",
"}. c #4B8759",
"|. c #69865A",
" X c #728651",
".X c #46866A",
"XX c #588477",
"oX c #598B6A",
"OX c #678667",
"+X c #778667",
"@X c #698379",
"#X c #748278",
"$X c #729373",
"%X c #868537",
"&X c #85874A",
"*X c #898558",
"=X c #898966",
"-X c #868676",
";X c #95826C",
":X c #3B2181",
">X c #521F84",
",X c #791F8A",
"<X c #6A1F86",
"1X c #482384",
"2X c #552689",
"3X c #5B348B",
"4X c #4E2B8D",
"5X c #77288A",
"6X c #65378A",
"7X c #6E2B90",
"8X c #30768D",
"9X c #2C4E90",
"0X c #565485",
"qX c #6A4989",
"wX c #77458A",
"eX c #695A84",
"rX c #795986",
"tX c #775192",
"yX c #4E7187",
"uX c #6B6984",
"iX c #766785",
"pX c #667885",
"aX c #757884",
"sX c #647691",
"dX c #892797",
"fX c #8E2F8C",
"gX c #881F8A",
"hX c #8A4585",
"jX c #874886",
"kX c #845485",
"lX c #865888",
"zX c #875692",
"xX c #8F4C91",
"cX c #856685",
"vX c #867886",
"bX c #8B6594",
"nX c #927595",
"mX c #916B92",
"MX c #2E8C8A",
"NX c #4F8D90",
"BX c #788586",
"VX c #6F908B",
"CX c #898688",
"ZX c #8E838E",
/* pixels */
"                                                                                                                        ",
"                                                -X-X-X=X;X;X;XCXZXZXCXCX                                                ",
"                                        ).x.eXuXpXpXG._.Q.).).(.mXnXZXZXCX-X'.rX                                        ",
"                                    Q.Q.'.vXvXBX#XA._.(.cX].`.Q.R.Q.!.+X$X$X+X=XiXqX                                    ",
"                                Y.Y.I.E.!.=X=X+X+X+X=X*X~.R.^.Y.fXfXY.^.~. XoX}.|.aXtXuX                                ",
"                            x.Y.Y./.Q.!.!.`.].cXcX`.L.W.C.qX3X7X5XdXdXdXfX).`.OX.XoX#XiXuXA.                            ",
"                          wXjXhX'.+X+X-XcXzXxX/.R.~.A.BXyX8X9X9X4X7X5XdXdXxXhX).A.XXXX@XaXuXA.                          ",
"                        x.kXkXcX+X+XvXbXxXY.^._.F.NXNXNXNX8XyX0XqX7X5XdXdXdXfXfX^.u.OXXXVXaXaX#X                        ",
"                    A.D.c.iXuXaX-X].(.Y.^.C.F.yXNXNXNXNXNXsXuXiXlXzXfXdXdXdXdXfXfXY.R.p.XXNX#X#XoX|.                    ",
"                  Z.+XZ.S.pXVX-X!.L.~.C.N.yX8XMXNXNXVXBXBXvXvXcXcXlXxXxXxXxXxXzXhXY.Y.I.t.OXXXF.A.Z.A.                  ",
"                Z.}.{.{.@XG.`.L.L.A.N.8X8XMXMXNXVXVXCXvXvXvXcXiXcXcXbXbXbXbXbXvX].Q.I.U.U.E.p.N.F.p.A.                  ",
"                n.{.{.oX'.R.L.~.S.yX8XMXMXNXVXCXZXZXnXbXrXrXrXrXrXrXzXbXmXnXnXCX-X=XW.K.I.U.I.t.Z.F.Z.A.                ",
"              V.X..XOX].^.Y./.qX9X8XNXVXVXCXnXnXbXzX6X3X3X6XqXqXqXqXtXzXbXnXnXvX].`.`.!.W.K.I.U.E.A.S.S.A.              ",
"            t.n.M.C.!.~.Y.xX6X2X0XpXBXvXcXlXlXxX5X7X2X2X4X3X3X6X6X6XtXtXbXnXnXmX'.(.)._.`.Q.E.I.T.E.C.uXS.A.            ",
"          j y.c.E 5.K.I.hXwX5X6XD.G.'.)./.(.lXwX<X>X1X1X4X3X3X3X3X6XqXtXbXmXmXbXlX/././.lX'.'.R.I.T.E.C.0XS.p.          ",
"          a.k.E 3.s I.Y.fXdXdX(.]._.).z.'.'.iXqX2X:X:X:X1X1X1X2X2X6XqXzXbXbXbXzXlXkXjXhXjXkXcX'.R.T.T.7.S.h.Z.          ",
"        p.y.y.V.7.E Y.hXfXgXY.`.`.C.z.A.G.G.aXeX4X:Xn n n 1X1X1X2X6XwXzXzXzXzXlXkXkXkXjXhXjXkXiX'.I.T.P u.M.M.y.        ",
"        7.f.h.j.g.g.D./.Y.U.~.*XA.C.C.A.OX#XaXuX0X1X:Xn I 1X>X>X<X7XjXzXzXzXlXrXrXkXkXkXhXhXjXkXiX(.I.E.u.m.b.V.        ",
"      K Q M #.=.=.n.p.I.U.I.W.=XC.D.A.Z.OX@XBXpXeXqX2X2X2X>X<X<X,X5XfXjXzXlXrXrXrXrXkXkXjXhXjXkXeXrX^._.A.m.b.6.6.      ",
"      C U T B.F.F.i.t.I.U.K.*XG.D.D.G.|.|.OX@XBXuXeXqX6X<X5X,X,X,XgXfXjXrXrXiXrXrXkXkXkXhXjXjXkXuXD.(.'.F.S.h.y.w.      ",
"      R Q z.C.z.z.7.7.x._.`.-XG.x.D.G.|. X|.OX#XaXiXrXwX5X,X,X,X,X5XwXrXiXiXiXiXrXkXkXjXjXhXhXlXD.D.x.D.M.c.g.b.b.      ",
"    4.K P 7.7.P R E V.F.F.#X#XaXlXcXG.+X X[.|.OXBXaXiXwX5X,X,X,X5XwXeXuXiXiXiXiXrXlXkXjXjXjXkXcXG.C.z.S.h.E E b.b.a.    ",
"    6.P 4.y.C.z.E E b.m..XXX@XG.lXlX].#X+X X|.OX#XuXeX6X<X<X<X6XqXeXuXaXaXiXiXiXrXkXlXkXjXkXlXD.F.u.u.S.S.L L l.b.6.    ",
"    8.4.y.e.m.S.l.l.r..X.XXX@XG.(.(.'.].#X#X#XF.S.c.3X2X2XT g.c.S.uXaXaXuXuXeXeXeXrXrXkXlXcXD.G.Z.t.u.m.l.3.2.f.5.6.    ",
"  4.3.t.e.n.n.m.V.w.X..XoX@XF.G.(./.).'.G.G.G.S.M.g.T g.g.M.S.F.aXaXaXuXuX0XM.0XeXeXiXD.D.D.G.Z.p.j u.m.8.d w.h.8.6.    ",
"  >.3.u.m.n.....0.g X.XX@XA.F.F.C.R.E.Q.A.G.F.S.S.b.b.M.N.F.F.#X#XG.G.uXyXyXM.M.S.S.S.F.F.F.Z.i.t.t.i.b.P s w.h.c.c.5.  ",
"  >.3.u.N.n.r.| g 8 {.XXG.z.V.m.u.s K.L.!.p.p.i.i.i.e.e.e.i.OX+XG.G.F.M.M.M.S.F.F.F.F.F.F.Z.Z.p.t.u.m.y.$ t.y.b.g.T 6.  ",
"  >.p t.M.N.n.r.g g n.N.C.7.V.w.6.d P.J.L.L.%Xj j j [.[. X X+X+XA.F.N.N.S.F.A.A.A.Z.Z.Z.Z.Z.A.u.u.Z.m.8.d u.V.M.h.M s.  ",
"  ;.p 5.b.b.b.y.a.p.S.h.V.V.b.f.L + H.P.J.J.J.%X%X%X[.&X&X&X*XA.Z.N.N.S.C.C.A.A.A.Z.Z.Z.Z.A.A.A.F.F.V.3.s V.V.M.B.#.T   ",
"  ;.p 4.f.f.f.V.5.8.c.f.y.b.v.s.R Z + H.P.J.%X&X&X&X*X&XW.L.W.A.m.N.M.V.u.u.p.A.A.Z.Z.Z.Z.F.F.F.F.F.z.d t.V.Z.M.B.=.Y   ",
"  :.a p f.s.j.s.3.P k.y.t.y.b.j.W R Z $ s W.p. X X+X!.W.K.K.t.V.N.M.V.7.t.p.A.G.F.@X@X@XXXXXN.N.N.Z.7.s y.y.V.B.*.B.s.  ",
"  :.a p <.,.,.,.;.p t.t.h 4.b.j.g.W E P 8.u.A.A.A.A.u.s o d 6.b.B.V.7.5.u.A.G.G.F.@X@XXXXXXXn.n.e.p.t.t.y.y.V.v.X.*.f.  ",
"  t w ;.,.+.@.1.>.>.0.a.s p l.h.j.g.W k.k.z.V.C.C.z.8.$ + P f.v.b.6.5.u.C.G.G.G.F.Z.m.m.r.X.2 3 g p.u.6.w.y.b.v.} ..f.  ",
"  q w F _ ` ` ' 1.:.2 0.p $ s.h.@.j.W W k.k.l.z.k.k.P A V <.d.d.l.5.5.C.D.G.F.F.m.e.r.f 3 * * 8 g a.6.f.w.y.b...<  .2.  ",
"  r w H G ) ` ' 2.q.} 9.p $ <.@.=.@.T W W k.k.k.E R Z A P s.@.f.6.5.C.D.D.F.Z.m.n...| 3 * * 8 8 g y.f.f.0.y.b...< } 1.  ",
"  ;.;.$ B v ) ,.<.q.} 9.4.$ <.*.&.#.T W Q E E E R Z Z K <.+.d.6.3.7.C.D.S.N.B.=.=.&. .[ 1 * * 3 0.b.f.2.>.6.b.X.] [ 1.  ",
"    <.P C K H <.<.q.} 9.a $ 2.*.&.@.T W Q Q Q R R Z A K ,.@.2.4.4.z.D.D.M.=.$.$.$.&.{ [ 1 1 2 | w.V.V.2.>.2.v. .< <     ",
"    2.<.V U R L 2...} 0.a i 2.*.&.@.T W Q R R K Z A V L _ @.2.a 7.z.x.S.=.$.$.$.$.&.[ 1 4 < X.q.b.V.y.0.y 2.d.{ 1 :     ",
"    1.1.L C U K 2.| 2 h d i 1.&.&.@.Y Q R K K C A A V <.' 1.4.a 7.k.c.h.%.$.$.$.&. .< 4 1 X.n.b.V.y.0.0.>.2.@. .& >     ",
"      ( <.K A C ;.f g j 7 w ( %.&.,.Y R C K V + + + $ 2.1.>.h a 8.Q c.#.%.$.$.&.*.| 2 4 2 q.v.b.b.y.0.f >.d.#.9.w       ",
"      ^ ,.s.K A % 5 9 6 7 w [ { @.Y K C V $ $ o o o $ 2.:.0.j h L R Y O.O.%.$.*.q.9.3 * 2 q.v.d.f.w.0.:.1.+.+.a w       ",
"      c -.G s.L V X 7 6 7 - ] &.,.K V + o 7 7 7 7 7 i 4.0.h 9 h P C T o.O.O.O.*.q.1.f 3 3 q.v.d.f.w.w.1.' +.H i a       ",
"        -.F H f.s.L $ i y <  .1.H V + o 7 6 6 6 6 7 7 i p a.g h p V Y o.o.o.O.@.d.2.>.f 3 | v.d.d.w.2.1.) G F >.        ",
"        D @ # G ,.f.s.<.1...q.<.$ $ 7 6 6 6 6 9 h a i o $ 6.w.0.4.P Y o.o.m m +.d.<.2.f * 2 ..v.d.w.2.,._ ;.>.1.        ",
"          F X # S v +.+.@.v.b.6.p a 9 6 9 w y t t f h 4.8.k.s.1.>.<.Y m O.o.m M M G ,.:.- 2 | ....q.2.-.-.:.(           ",
"          ;.# X # S v _ @.v.b.w.0.h 9 w t > : < < 1 * g 0.<.<.t t ,.G v o.O.o.m M M v ) ( ( ( ( ( > y @ > ( ,.          ",
"            r X % # D ^ 1.v.b.q.> q r t : = < ] ] < , f 0.>.y 5 q ^ v ) ` O.O.o.O.#.+.) ~ ~ ^ ^ - q r u > -.            ",
"              0 % % X u > | q.1.^ -.-.: < ] { {  .` ,.<.L 3.a g q ^ l ) ' ' ` O.O.*.../ ~ x x ; & y F t e               ",
"              w X O O X 0 t ( _ x D ( [ ] { &.O.m N I U U L 2.0.9.:.v l ) ( > / ! [ = , - ; , & > ;.;.e                 ",
"                0 X O O % 0 > ` ) ) / ] { %.O.m m N k k k G 1.:.9.9.1.v N v -.; = = 4 , > > : : ,.;.r r                 ",
"                  u X O O X e ` `  .] ] { O.o.o.) l l l o.` ( :.y f :.' b k z x ~ ! = / | | ' _ -.r r                   ",
"                    ; @ # # -.( ' 2 4 = ' ' ' ' ( ( ` ) ) ` ' :.>.>.>.:.G B k l ! ! [ ( 1.' _ -.r r                     ",
"                      ; c c ^ ^ :.t & & > > > > > ( ' _ v _ ' 1.>.;.;.F J J v ! ] / ( :.,.^ e r 0                       ",
"                          c x x ^ > & 5 - - > ( :.:.1.,.v b ) ,.,.F J B B G ` / ( e F -.e r w                           ",
"                            . z b ~ , & & - > :.1.2.,.G b N b v G J B B G ,.1.-.F @ @ 0 0 5                             ",
"                                @ . x : , 5 q y >.<.H G k k k k S S S G G v v S @ X 5 5                                 ",
"                                    @ @ ; > q w r @ D S k k k x ^ ^ D D z k z @ X 0                                     ",
"                                        # @ e e u e c x x ~ ~ ~ ; @ c z k z @ @                                         ",
"                                                c c c c ; ; ; @ z z z D                                                 ",
"                                                                                                                        "
};
