/* XPM */
static char *_0fa0fa223274fb6a8951a4d254422deL0rYIZ2OEonMh9tm[] = {
/* columns rows colors chars-per-pixel */
"60 60 93 2 ",
"   c None",
".  c #232323",
"X  c #252525",
"o  c #282828",
"O  c gray16",
"+  c #2A2A2A",
"@  c gray17",
"#  c #2C2C2C",
"$  c #2D2D2D",
"%  c gray18",
"&  c #2F2F2F",
"*  c gray19",
"=  c #313131",
"-  c #323232",
";  c gray20",
":  c #343434",
">  c #353535",
",  c gray21",
"<  c #373737",
"1  c gray22",
"2  c #393939",
"3  c #3A3A3A",
"4  c gray23",
"5  c #3C3C3C",
"6  c gray24",
"7  c #3E3E3E",
"8  c #3F3F3F",
"9  c gray25",
"0  c #414141",
"q  c gray26",
"w  c #434343",
"e  c #444444",
"r  c gray27",
"t  c #464646",
"y  c gray28",
"u  c #484848",
"i  c #494949",
"p  c gray29",
"a  c #4B4B4B",
"s  c #4C4C4C",
"d  c gray30",
"f  c #4E4E4E",
"g  c gray31",
"h  c #505050",
"j  c #515151",
"k  c gray32",
"l  c #535353",
"z  c gray33",
"x  c #555555",
"c  c #565656",
"v  c gray34",
"b  c #585858",
"n  c gray35",
"m  c #5A5A5A",
"M  c #5B5B5B",
"N  c gray36",
"B  c #5D5D5D",
"V  c gray37",
"C  c #5F5F5F",
"Z  c #606060",
"A  c gray38",
"S  c #626262",
"D  c gray39",
"F  c #646464",
"G  c #656565",
"H  c gray40",
"J  c #676767",
"K  c #686868",
"L  c DimGray",
"P  c #6A6A6A",
"I  c gray42",
"U  c #6C6C6C",
"Y  c #6D6D6D",
"T  c gray43",
"R  c #6F6F6F",
"E  c gray44",
"W  c #717171",
"Q  c #727272",
"!  c gray45",
"~  c #747474",
"^  c gray46",
"/  c #767676",
"(  c #777777",
")  c gray47",
"_  c #797979",
"`  c gray48",
"'  c #7B7B7B",
"]  c #7C7C7C",
"[  c gray49",
"{  c #7E7E7E",
"}  c gray50",
"|  c #818181",
" . c gray51",
/* pixels */
"                                                                                                                        ",
"                                              K R R K ! ! ! ! K K ! ! K K                                               ",
"                                        c K ! ! / _ [ _ ! ! / / G N c c M Z R R                                         ",
"                                  c M M M Z R / _ _ _ ! R R R R K Z N N N Z G R R K K                                   ",
"                              M Z K R ! ! K G R R ! _ / R G M c c c N K R ! ! / ! ! K G R                               ",
"                            K K G M N K K Z Z Z G G Z Z Z N Z Z G G N M M N G K R G c c K R                             ",
"                        G R R R K Z M j d d j N K ! / / _ ! G Z Z G R R G N c c M N G K R ! /                           ",
"                      K ! ! Z N Z K R G Z Z Z N G R K Z G K R ! K N Z G K K K R / / _ _ / R / ! N                       ",
"                    Z R R Z c c M G K G G R ! G Z R ! K N N Z /  .[ ! K G G K / _ [ [ [ _ R G N M R                     ",
"                  G G Z j p c Z G K K G G G R ! K G K R K K K /  . ._ / ! ! _ [ [ [ [ [ / G j w d K K                   ",
"                M Z K G Z G R ! / / R G Z G G K K G G K K K G R / / _ / / / / _ [ [ [ [ _ R N d c M N M                 ",
"              c p c M M c N G ! / R G Z Z M d d d d c Z G Z Z G G G K R R R ! / _ _ _ _ _ ! K Z Z N N M M               ",
"            j N d d c j p c Z ! ! Z Z K R K Z Z N M M G R ! ! / ! R K K K ! / _ / / ! ! _ _ ! ! K M M N Z Z             ",
"            Z K N N Z N j M G R Z c N G K K K K G G G K R R K K K G Z N N K _ _ R G N Z K / R K ! N j N R K             ",
"          M G K K R K N c M Z Z c p p M G G G K R R R K G N M N G K R G M M R _ / R G N Z K R Z R ! Z Z Z M M           ",
"          Z K / / R K G G Z G N j e 6 j G R ! / / ! R K Z M c M Z R ! / ! G N Z R / / / ! ! K N N / / ! K M p           ",
"        c Z R ! Z c Z ! _ / K M j e e M R ! / / / / / R K K G G Z Z K ! / _ ! Z c d p d d j j c M G R ! ! K c e         ",
"      p w j Z N c j M Z R / R M d e c Z R / / / / / R Z M N N N Z Z Z Z G ! _ / G c d p p d c M N Z Z Z G K K Z c       ",
"      p j c N Z G M p j Z R G j e p M Z K ! ! R K Z M p 6 4 4 6 e p c N G K ! / K Z Z Z Z Z Z Z Z G Z G K R K K G       ",
"      M N N Z G K Z d e d N M p p j M N Z G G G Z N M c j p e e e d c G K G K R G N Z G K K G Z Z G K G G K G N M       ",
"    d j c M Z G K G c d d N G Z Z Z N M c M M M M M N N N N N M M Z G R R G M j d d c M M N Z Z N Z G Z N Z G M c d     ",
"    j d d M Z G G Z N M N G G K K K K Z M c j j c M N N N N Z Z Z Z N M M M c j w , , 6 w p d j M Z G Z M M N N c d     ",
"    p e d N G G Z G G Z G Z c j c N G G G Z N M c c M N Z G Z M c d w , 4 w p d j d e 6 , , 6 p N G G N j c N N c d     ",
"  6 e d M Z Z N N Z Z G G N M M N M c c c M N Z Z Z Z Z Z M c j p p p p p p p p d j j d d d d c M N c p 6 p c Z M p 6   ",
"  w e j j j c M M M M M M Z G R ! ! K N p 6 w p j c M M c j j d d j c N Z Z N M c c M M c c M N M c j p e w e c Z c e   ",
"  p e e p e e p d d d c Z K K K K K G Z M d 6 6 w p d d p w w 6 w d N Z K K K G Z N N Z Z Z Z N c c c j d p 6 p M N j   ",
"  p e w p p w w p j N G G G G Z N M c c c M M c M c j d e w 6 4 e j N N Z G G G G Z Z Z N M c c c c c d p p 6 w d j d   ",
"  p d d j j j d d M G G G Z N M M M j p j M N Z Z M d p p j j d d c M N N Z Z Z Z Z Z Z M c j j j j d e w e w w p e d   ",
"  w , 4 6 w d M M N G Z Z N M M M M j p j M N N j p p j c M M c j c M N Z Z Z N N N N N M j p e p j j d e e e w p e d   ",
"  e 6 p w * w c M Z G G N N N M c j d d j j j e w d M N N M c c c M N Z Z Z N c j j c c M j e 6 6 e d d p p p d j d j   ",
"  6 e j w & w c c M G G N M M c j d p p e 6 , 4 p M N N M c j c M N Z N N c d j j M M M M N c e 6 w p d d p p d d j d   ",
"  * * 6 * 6 j c p d N Z Z N M c j j d d e 4 6 d M Z G G Z Z Z Z G Z N j p d j j j c c d p d c j p p p d p d d e e d e   ",
"  6 & , e j j p p d c M Z Z N N M M c d e p j N G G G Z Z Z G G G N j w 6 e p p p d j d p p p d j c c j d p e w e j d   ",
"  4 4 e j d p d c M M c N Z G Z Z N c d d j M G G G Z Z G G Z N j p w w e e e e e d j d d p e e j N Z M d e w w d j d   ",
"  , & e d e p j M M M M M Z G G G Z M j d j M Z K R K R K G N j p w w d c N M c p e e e e w 4 6 d M Z N d e w e j d p   ",
"  6 @ * e w p j j d p p j N Z G G G Z N c c M N G K K G N M M c d e e p c Z N d w 4 6 w w w 6 w p j M Z M d p d d e d   ",
"  w w 4 6 e e p e 6 , 4 p d j c M Z G Z N N N N Z G Z M d p p j j d e w p j d e w p p d d d d p p d j Z Z c p d e e d   ",
"    p p 4 w e e w 6 * , w w e p p j M Z Z N M M M N N M j p w w e e e w 6 6 4 w d j c M M c d 6 6 w d M Z N c c p e     ",
"    e e w , , w p d p e w w p p e w p j M N N M c c c c c c d p w 6 6 w p p e w e p j j j d e 4 * , w e j c c c d e     ",
"    6 w p p 4 * w d j d j p p d d e 6 6 e d c c c c j j c M c c j p p d j c j d p p p d p p 6 * & * 6 6 p j j e w 6     ",
"      4 p p 4 * w d d d j j p p d d w 4 4 e d c N M M c M M M M c j j c M M c j d p w w w 6 , * & , e e d j p w 6       ",
"      * w w , 4 p d d d j j d e e e 6 , 4 w d M N N M c j c c c j d d c c c j d p e 4 * , , * * , 6 e p d p w w w       ",
"      @ * 4 , w d d p p d j j j p w 6 4 4 6 p c N N M c j c c j p e p d d e 4 4 6 w 6 6 6 6 * * , 6 e d j p 4 6 w       ",
"        & * * 4 p p d p d j c c d p w w w w e p j M M M M M c j p p d j p , . X & , 6 e e 6 * * * 4 p d d d 6 4         ",
"        * 4 6 w p p j j j j j d p p e w e d d d d p d j j j p p p p p p e 6 , 4 6 w w p p 6 4 * , e d d p e ,           ",
"          , , , w p p d d j j p w w w w p p p p e e e p p p p e e e e d j p 6 4 4 6 p c j p p p p p p p e 4 4           ",
"            4 6 6 e p e e d d p e e 6 w e e w 4 6 6 w w e e e w w p d j d e , , 6 e d c c j j j j c d e w w             ",
"            4 e w w w e w w e w 4 , * 4 w e p d j d p p e e p p d j d e w 6 , * * 6 e e p p w 6 w p d e w e             ",
"              6 e w e w 6 6 w e w 6 6 e d d j d d d e w w w e e p p p e w w p 6 , w e e p e w 6 6 w p 6 w               ",
"                4 6 e e w 6 4 6 e e w w p d j j d d p e e p d d d p w 6 6 e e 6 w e p d p p e e e 6 6 6                 ",
"                  , 6 w w w e 6 6 6 6 6 w p d j j d d p p d p p e 6 , 4 4 6 4 w p d d d e p p e 4 4 4                   ",
"                    , 4 4 * , 6 6 6 6 e p d d p p p e e e e w 6 6 4 , * * 4 w p p e 6 6 w w 6 & * 4                     ",
"                      , * @ @ @ & & , 6 w e p p p e w w w 6 6 4 , & & & * , , 4 4 , * , , , , @ &                       ",
"                        @ & & @ * * & * 4 4 6 6 6 w e p e 6 4 , & * * * & * 4 4 4 , 4 4 , , * @                         ",
"                            & & & 6 4 * * 6 w e 6 4 4 e p e w 4 4 6 6 6 4 , , , * * * * & &                             ",
"                              & & & 4 4 * , 4 4 & & * 6 w 6 , * , 4 6 6 6 6 6 4 4 , & @ *                               ",
"                                  * & & * , 6 6 & @ 4 4 , , & @ @ & , 6 4 4 , 4 4 , *                                   ",
"                                        @ & * * & * , 4 * * & @ & , 6 4 * & * ,                                         ",
"                                              & * * , , , , * @ @ , 4 , *                                               ",
"                                                                                                                        "
};
