/* XPM */
static char *_879c912d242475da775bc664c737060x48DzI91oJ7u7193[] = {
/* columns rows colors chars-per-pixel */
"60 60 166 2 ",
"   c None",
".  c #15144E",
"X  c #110F57",
"o  c #110F5C",
"O  c #141254",
"+  c #13125B",
"@  c #18175F",
"#  c #110F63",
"$  c #120F68",
"%  c #131264",
"&  c #191764",
"*  c #1A1867",
"=  c #14126C",
"-  c #19166D",
";  c #1A186B",
":  c #161472",
">  c #191675",
",  c #1B1975",
"<  c #191779",
"1  c #1D1A7C",
"2  c #201E7F",
"3  c #1F1C80",
"4  c #1F1D80",
"5  c #1E1C81",
"6  c #1F1C81",
"7  c #1F1D81",
"8  c #1E1C80",
"9  c #1F1C82",
"0  c #1F1D83",
"q  c #1E1B80",
"w  c #201D80",
"e  c #201D81",
"r  c #201E80",
"t  c #211E80",
"y  c #201E81",
"u  c #211E81",
"i  c #211F81",
"p  c #221F81",
"a  c #201D82",
"s  c #201D83",
"d  c #201E82",
"f  c #211E82",
"g  c #211F82",
"h  c #201E83",
"j  c #211E83",
"k  c #221F82",
"l  c #221F83",
"z  c #201D84",
"x  c #211E84",
"c  c #211F84",
"v  c #201E85",
"b  c #211E85",
"n  c #211F85",
"m  c #221F84",
"M  c #221F85",
"N  c #211F86",
"B  c #221F86",
"V  c #221F87",
"C  c #211E81",
"Z  c #222082",
"A  c #222083",
"S  c #232083",
"D  c #222084",
"F  c #232084",
"G  c #232184",
"H  c #222085",
"J  c #232085",
"K  c #232185",
"L  c #232086",
"P  c #232186",
"I  c #232087",
"U  c #242184",
"Y  c #242185",
"T  c #242186",
"R  c #242187",
"E  c #242286",
"W  c #252386",
"Q  c #242287",
"!  c #252287",
"~  c #262386",
"^  c #262487",
"/  c #232088",
"(  c #242188",
")  c #242189",
"_  c #242288",
"`  c #252288",
"'  c #252388",
"]  c #242289",
"[  c #252289",
"{  c #252389",
"}  c #262388",
"|  c #262389",
" . c #25228A",
".. c #26238A",
"X. c #26238B",
"o. c #26248A",
"O. c #27248A",
"+. c #26248B",
"@. c #27248B",
"#. c #27258B",
"$. c #27248C",
"%. c #27258C",
"&. c #27248D",
"*. c #27258D",
"=. c #282589",
"-. c #28258B",
";. c #28258C",
":. c #28258D",
">. c #28268C",
",. c #29268C",
"<. c #28268D",
"1. c #29268D",
"2. c #29278D",
"3. c #2A278D",
"4. c #28258E",
"5. c #28258F",
"6. c #28268E",
"7. c #29268E",
"8. c #29278E",
"9. c #28268F",
"0. c #29268F",
"q. c #29278F",
"w. c #2A278E",
"e. c #2A278F",
"r. c #2A288E",
"t. c #2B288E",
"y. c #2A288F",
"u. c #2B288F",
"i. c #2B298F",
"p. c #2C298F",
"a. c #292690",
"s. c #292790",
"d. c #292691",
"f. c #292791",
"g. c #2A2790",
"h. c #2A2791",
"j. c #2A2792",
"k. c #2B2890",
"l. c #2B2990",
"z. c #2A2891",
"x. c #2B2891",
"c. c #2B2991",
"v. c #2A2892",
"b. c #2B2892",
"n. c #2B2992",
"m. c #2C2990",
"M. c #2C2991",
"N. c #2C2A90",
"B. c #2C2A91",
"V. c #2D2A91",
"C. c #2C2992",
"Z. c #2C2993",
"A. c #2C2A92",
"S. c #2D2A92",
"D. c #2D2B92",
"F. c #2C2A93",
"G. c #2D2A93",
"H. c #2D2B93",
"J. c #2E2B92",
"K. c #2E2B93",
"L. c #2E2C93",
"P. c #2D2A94",
"I. c #2D2B94",
"U. c #2E2B94",
"Y. c #2E2C94",
"T. c #2F2C94",
/* pixels */
"                                                                                                                        ",
"                                                m.m.m.m.U.m.m.U.m.m.m.m.                                                ",
"                                        m.l.m.m.m.m.m.m.m.m.U.U.m.m.m.m.m.m.l.l.                                        ",
"                                    u.l.m.m.m.U.m.U.U.m.Y.Y.U.Y.U.U.U.m.U.m.m.m.l.u.                                    ",
"                                u.u.l.m.m.m.U.U.U.Y.Y.Y.Y.Y.Y.Y.U.Y.Y.Y.Y.U.m.m.l.l.u.u.                                ",
"                            ;.;.u.m.m.m.m.m.m.m.U.U.U.m.Y.m.U.U.Y.m.Y.Y.Y.U.U.m.m.m.l.;.;.;.                            ",
"                          ;.;.u.l.m.m.m.m.m.U.U.U.m.U.m.U.U.U.U.U.U.U.U.U.U.m.m.m.m.m.l.;.;.;.                          ",
"                        ;.;.;.l.m.m.m.m.m.m.U.U.U.m.m.m.U.m.U.m.U.m.U.U.m.U.m.U.m.m.m.l.u.;.;.;.                        ",
"                    ^ ;.;.u.u.l.m.m.m.m.m.m.m.m.m.U.U.m.U.U.m.U.m.m.m.m.U.m.m.m.m.m.m.m.u.;.;.;.-.-.                    ",
"                  ^ #.%.;.u.u.m.m.m.m.m.m.m.l.l.m.l.l.l.l.l.l.U.m.m.m.l.m.m.m.m.m.m.m.m.u.u.;.;.;.-.U                   ",
"                U  .#.%.;.u.u.u.m.m.m.m.l.l.m.l.l.l.h.m.h.l.l.l.l.l.m.l.m.l.l.l.m.l.l.m.m.p.u.;.;.#. .                  ",
"                U  .%.;.;.u.u.u.l.l.m.l.l.l.l.h.l.l.l.h.h.h.h.h.h.l.h.l.l.l.l.l.l.l.u.u.u.u.u.;.%.#. .U                 ",
"              U  . .#.;.;.;.;.u.l.l.h.l.h.l.h.l.h.h.h.h.h.h.h.h.h.h.h.h.h.h.l.l.l.;.l.u.u.u.;.;.;. . . .I               ",
"            g B /  . .;.;.;.;.;.;.h.;.;.;.;.h.h.h.h.h.h.h.h.h.h.h.h.h.h.h.h.h.h.h.;.;.;.;.;.;.;.;. . .I I g             ",
"          2 g B /  . .#.;.;.;.;.;.;.;.;.;.;.;.h.;.h.h.h.h.h.h.h.h.h.h.;.h.h.h.h.;.;.;.;.;.;.;.;.#. . ./ B g 2           ",
"          2 g B I  . .#.;.;.;.;.;.;.;.;.;.;.;.;.;.;.;.;.;.h.;.h.h.;.;.;.;.;.h.h.;.;.;.;.;.;.;.;.#. . .B B g 2           ",
"        1 1 7 B B /  . .#.#.;.;.;.;.;.;.;.;.;.;.;.;.h.;.h.h.h.h.;.;.;.;.h.h.h.;.;.;.;.;.;.;.#.#. . . .B B g 1 1         ",
"        1 1 q B B B  . .#.#.%.;.;.;.%.;.;.;.;.;.;.;.;.;.h.h.h.h.;.;.;.;.;.;.;.;.%.;.;.;.;.#.#. . . .I B g 7 1 1         ",
"      , 1 1 q 7 B B  . . . .#.%.;.%.%.%.;.;.%.;.;.;.;.;.;.;.%.%.;.;.;.;.;.;.;.;.%.%.;.#.#.#.#. . .U B B 7 q 1 1 1       ",
"      , 1 1 q 7 g B I  . . .#.#.%.%.%.%.%.;.%.;.%.;.;.;.;.;.;.;.%.;.;.;.;.%.%.%.%.#.%. .#. . .U U B B B 7 1 1 1 ,       ",
"      , 1 1 1 q 7 B I I U  . . . . .#.#.%.%.%.%.;.%.;.%.%.%.;.;.;.%.;.%.%.%.#.%.X.#. . . . .U U I B B 7 q 1 1 1 ,       ",
"    , , 1 1 1 q q 7 B B I U  . . . . .#.#.%.%.%.%.%.%.;.%.%.%.;.%.;.%.%.%.%.#.#. . . . . .U I I B g g q 1 1 1 1 1 ,     ",
"    ; , < 1 1 1 1 7 g g B I U U  . . . . . .#.#.#.#.#.%.#.#.%.%.;.#.#. .#.#.#.#. . . .U U U I B g g 7 1 1 1 1 1 , ,     ",
"    , < < < 1 1 1 7 7 g B B I I  .U U  . .#.#. . .#.#.#.#.#. . . . .#. .#. . . . . .U I U I g g g 7 q 1 1 1 < < , ,     ",
"  ; - < < < < 1 1 1 1 7 g B g I U U U U  . . . . . . .#. . . . . . . . . . .U  . .U U I I g g g g 1 1 1 1 < < < , ,     ",
"  * - < < < < 1 1 1 1 1 7 g g B I I I U U U  . . . . . . . . . . . . . . .U U U U I A g g g g 1 1 1 1 1 < < < < < : ;   ",
"  * - : < < < < < 1 1 1 7 7 g g g I I I U U U U U  . . . .U  . .U U U U U U I I I I g g g g 7 1 1 1 1 1 < < < < < : ;   ",
"  * - : < : < < < 1 1 1 1 7 g g g g g I I U U U I U U U U U U U I U I I A A A g A g g g 1 1 1 1 1 1 1 < < < < < : - *   ",
"  * - : : : < < < < 1 1 1 1 1 g 1 g g g g A A I I I I I I U I U I I I I A g g g g g 2 1 1 1 1 1 1 1 1 < < < : : : - ;   ",
"  * - - : : : : < < < 1 1 1 1 1 1 2 g 2 g g g g g A A I I g g A A g g g g g g g g 2 1 1 1 1 1 1 1 1 < < < : < : : - *   ",
"  * - - : : : : : < < < 1 1 1 1 1 1 1 2 2 2 2 2 g g g g g g g g g g 2 2 2 2 2 1 1 1 1 1 1 1 1 1 < < < : : : : : : - -   ",
"  * - - : : : : : < < < < 1 1 1 1 1 1 1 1 1 1 2 2 1 2 1 2 2 2 2 2 2 2 1 1 2 1 1 1 1 1 1 1 1 1 1 < < < < : : : : - - -   ",
"  * - - - : : : : : : < < < < 1 1 1 1 1 1 1 1 1 1 1 1 1 1 1 1 1 1 1 1 1 1 1 1 1 1 1 1 1 1 , < < < < : : : : : : - - -   ",
"  & - - = = : : : : : : : < < < 1 1 1 1 1 1 1 1 1 1 1 1 1 1 1 1 1 1 1 1 1 1 1 1 1 , 1 , < < < < < : : : : : : : - - *   ",
"  @ & - = = = = : : : : : : < < < 1 < , , 1 1 1 1 1 1 1 1 1 1 1 1 1 1 1 1 1 1 , < 1 1 < < < : : : : : : : = = - - - *   ",
"  @ & - = = = = = = : : : : : < < < < < , < , 1 1 , , , , , , 1 , 1 , 1 , , < < < < < < < : : : : : : : : = = - - & *   ",
"    & & = = = = = = = = : : : : : : < < < < < < < < < , < , < < < < < < < < < < < < : : : : : : : : : = = = = - - *     ",
"    & & = = = = = = = = = = : : : : : < : : < < < < : : < : : : : : < : < : : : < : : : : : : : : = = = = = = = & &     ",
"    @ & % = = = = = = = = = = : : : : : : : : : : : : : : : : : : : : : : : : : : : : : : : : : = = = = = = = - & *     ",
"      & % % = = = = = = = = = = = = = : : : : : : : : : : : : : : = - : : : : = : = : : = = = = = = = = = = = & &       ",
"      @ & % % = = = = = = = = = = = = = = = = = : : : : : = = = = = : : = = = = = = = = = = = = = = = = = % % & &       ",
"      + & % % % = = = = = = = = = = = = = = = = = = = = = = = = = = = = = = = = = = = = = = = = = = = = % % % & &       ",
"        @ % % % % % % = = = = = = = = = = = = = = = = = = = = = = = = = = = = = = = = = = = = = = = % % % % % &         ",
"        + @ % % % % % % % % % = = = = = = = = = = = = = = = = = = = = = = = = = = = = = = = = = % % % % % % + &         ",
"          + % % % % % % % % % $ $ % $ = % = % % $ = = = $ = = = = = = = = = = $ = = % = = % = % % % % % % & @           ",
"          O @ + % % % % % % $ $ $ % $ $ % % $ $ % = % $ = $ % $ $ = = = % = $ % % $ % % % $ $ % % % % % % @ @           ",
"            O + + % % % % # $ $ % % # $ $ $ $ $ $ $ $ $ $ $ $ $ $ $ $ $ $ = % % % $ $ $ $ $ # # % % % + @ +             ",
"              + + + % % # # # # # # # # # # # # $ $ $ $ $ $ $ $ $ $ $ $ $ $ $ $ $ # % % # % # % % % + + +               ",
"              O + + + + % + % # # # # # # # # # # # # $ # $ # # # # $ $ # # $ # # # # # # % % + + + + +                 ",
"                O + + + + + + o o o o o # # # # o # # # # # # # # # # # # # # # # # # o + + + + + + + +                 ",
"                  O + + + + + + o o o o o o o o o o # # # # # # o # o # o o # o o o o o + + + + + O +                   ",
"                    O O O + + + + o o o o o o o o o o o o o o o o o o o o o o o o o o + + + + + O O                     ",
"                      . O O O + o + + o o o o o o o o o o o o o o o o o o + o o + + + + + O O O O                       ",
"                          O O O O O O + + o o o o o o o o o o o o o o o o + + + + + + O O O O                           ",
"                            . O O O O O O O X + o + X o o o o o o o + + o + + + + O O O O O                             ",
"                                . O O O O O O O O X O + X + X X o O O O O O O O O O O O                                 ",
"                                    . O O O O O O O O O O O O O X O O O O O O O O O                                     ",
"                                        . . O O O O O O O O O O O O O O O O O O                                         ",
"                                                . . . . O . O O O O . O                                                 ",
"                                                                                                                        "
};
