/* XPM */
static char *cf6063522717482ed7162e386b9bdab3eVKcG0yJ9RyVbOIV[] = {
/* columns rows colors chars-per-pixel */
"42 42 2 1 ",
"  c white",
". c black",
/* pixels */
"                                          ",
"                                          ",
"                                          ",
"                                          ",
"                                 .        ",
"                            .......       ",
"                            .......       ",
"                           .........      ",
"                         .....  ......    ",
"                         ....    .....    ",
"                          ...     ...     ",
"                          ..      ...     ",
"                         ....     ...     ",
"               ...       .....  ......    ",
"               ...        ..........      ",
"              .....         .......       ",
"        ...  .......   ..   .......       ",
"       ...................   .   .        ",
"       ...................                ",
"        .................                 ",
"        .................                 ",
"        ......     ......                 ",
"       ......       ......                ",
"     .......         ......               ",
"    ........         ........             ",
"    ........         ........             ",
"    ........         ........             ",
"      ......         ......               ",
"       ......       ......                ",
"        ......     ......                 ",
"        .................                 ",
"        ..................                ",
"       ...................                ",
"       ...................                ",
"        ..   .......   ..                 ",
"              .....                       ",
"               ...                        ",
"               ...                        ",
"                                          ",
"                                          ",
"                                          ",
"                                          "
};
