/* XPM */
static char *a3e2c1c28eb24707df92d81675328397NRHDWQ8Oxsu6mnnB[] = {
/* columns rows colors chars-per-pixel */
"64 64 134 2 ",
"   c None",
".  c #030B2E",
"X  c #040D34",
"o  c #040F38",
"O  c #05103E",
"+  c #051344",
"@  c #07154C",
"#  c #071751",
"$  c #071854",
"%  c #081955",
"&  c #091C5C",
"*  c #0A1E62",
"=  c #0B2066",
"-  c #0B236C",
";  c #0D2673",
":  c #0E2877",
">  c #0E2A7B",
",  c #102D7F",
"<  c #0F2D80",
"1  c #102E82",
"2  c #113086",
"3  c #12348C",
"4  c #143791",
"5  c #153994",
"6  c #173D9B",
"7  c #183F9D",
"8  c #17409E",
"9  c #18409E",
"0  c #1A44A4",
"q  c #1B47A8",
"w  c #1D4BAC",
"e  c #1F4EB0",
"r  c #1F50B2",
"t  c #2153B5",
"y  c #2356B9",
"u  c #255ABC",
"i  c #275EC0",
"p  c #285FC1",
"a  c #2760C1",
"s  c #2760C2",
"d  c #2760C1",
"f  c #2860C2",
"g  c #2861C2",
"h  c #2861C3",
"j  c #2961C3",
"k  c #2862C3",
"l  c #2962C3",
"z  c #2962C4",
"x  c #2963C4",
"c  c #2963C5",
"v  c #2A64C5",
"b  c #2A64C6",
"n  c #2A65C6",
"m  c #2B65C6",
"M  c #2B66C7",
"N  c #2B67C7",
"B  c #2963C5",
"V  c #2B67C8",
"C  c #2C67C8",
"Z  c #2B67C8",
"A  c #2C68C8",
"S  c #2C68C9",
"D  c #2C69C9",
"F  c #2D69C9",
"G  c #2D69CA",
"H  c #2D6ACA",
"J  c #2D6BCB",
"K  c #2E6ACB",
"L  c #2E6BCB",
"P  c #2E6BCC",
"I  c #2E6CCC",
"U  c #2F6CCC",
"Y  c #2F6DCC",
"T  c #2F6DCD",
"R  c #2E6BCB",
"E  c #306ECD",
"W  c #306ECE",
"Q  c #306FCE",
"!  c #306FCE",
"~  c #3070CF",
"^  c #3170CF",
"/  c #3171CF",
"(  c #3170CF",
")  c #3171D0",
"_  c #3272D0",
"`  c #3272D1",
"'  c #3273D1",
"]  c #3373D1",
"[  c #3374D2",
"{  c #3475D2",
"}  c #3576D3",
"|  c #3577D4",
" . c #3374D2",
".. c #3678D4",
"X. c #3678D5",
"o. c #3679D5",
"O. c #377AD6",
"+. c #3679D5",
"@. c #387BD6",
"#. c #387CD7",
"$. c #387CD7",
"%. c #397DD8",
"&. c #3A7ED9",
"*. c #3A7ED8",
"=. c #3B81DA",
"-. c #3C81DB",
";. c #3C82DB",
":. c #3D83DC",
">. c #3E84DC",
",. c #3E85DD",
"<. c #3F85DD",
"1. c #3F86DD",
"2. c #3D83DC",
"3. c #4086DE",
"4. c #4087DE",
"5. c #4087DE",
"6. c #4088DF",
"7. c #4188DF",
"8. c #4189DF",
"9. c #4188DF",
"0. c #4289E0",
"q. c #448CE1",
"w. c #448DE1",
"e. c #458EE2",
"r. c #448CE1",
"t. c #4690E3",
"y. c #4790E3",
"u. c #4790E3",
"i. c #4B95E6",
"p. c #4B96E6",
"a. c #4993E5",
"s. c #4F9BE8",
"d. c #519DEA",
"f. c #56A2EC",
/* pixels */
"                                                                                                                                ",
"                                                        + 3 2 > 2 1 @                                                           ",
"                                                          & 3 3 2 &         $ ; * O                                             ",
"                                                                    . + & 2 y t 4 1 = @                                         ",
"                                              X O O + + + + % $ @ & = ; 7 x H u q 3 ; - * +                                     ",
"                                      . @ ; 0 t q 3 2 2 > : : : ; - : 5 x H H b j r 6 2 ; : - $                                 ",
"                            + > : @ 1 q t j | } } O.b w 6 2 3 2 2 2 5 x ~ O.} ] T b t w 6 2 1 1 - o                             ",
"                          ; e u u w y y u T V j H O.>.;.O.~ j y e u O.:.:.O.] } } C V u y 6 2 1 1 : %                           ",
"                        : r b T H u y w u H u u i E 7.y.y.q.q.q.a.a.7.b w 0 q q j ] H T E r 4 2 2 < 1 =                         ",
"                      > e V j H j y e e b H u u b ] } ~ [ &.4.>.] i q 5 1 3 3 < 2 t ~ C H u q 2 2 > 2 6 ;                       ",
"                  . 2 y H H b H i t w y b H b b b u y t y u y u t w q q 5 9 3 : > 2 x P x u e 5 2 1 4 w 6 =                     ",
"                  2 y ] O.P b H u y t u b T H u y r y u u y t u u e q q 6 6 5 2 1 1 w H j t r q 6 2 5 t 0 4 *                   ",
"                : u O.>.#.~ H b u t u b ~ E 0 q u i j i x x x b j e q 0 4 4 4 6 4 2 5 u H e w q q 4 4 w w 6 1 +                 ",
"              & 0 u O.>.>.@.T x y u H ] #.y 4 7 y b H C H H T b y q 0 0 5 4 6 9 q 4 6 6 H w w w 9 6 2 5 0 q 2 ; X               ",
"            @ 5 q u #.4.0.:.E x j T | ] [ 0 6 q q y s b b i y t u t q 6 4 5 q q e 6 q 3 C y q w q 0 q 8 2 5 9 1 *               ",
"            2 q t b ;.q.q.>.] H O.&.V b T 0 6 r w w w t y t 9 7 u H w 0 q q q q t w e 5 x j q q w q q q 6 , 4 9 2 #             ",
"          & 0 t u } 4.q.7.>.&.=.4.H y s T y 0 w e 0 q w t w t y j H w q w w w q u u y 0 H i 0 q w q q 0 7 6 < 2 4 :             ",
"        . > 0 w i =.7.>.>.y.q.>.T i u i H ] j w r q q w r t u x b u w 0 0 q q w u x u y E u q w w w w q q 9 5 < ; = +           ",
"        $ 3 7 q x :.:.=.>.u.0.} b u u u i E O.T u y e e e u u i u w w q 0 w w w i H H E b t q w q w w w w 0 0 2 ; = =           ",
"        : 3 4 q H :.>.[ O.4.=.] C j y y y s E @.} i y y y u j u w q q q q w y t i ] &.| i w w q w e y y y t e 6 : ; 1 $         ",
"      # 2 4 5 t | ;.~ t t ] @.| T b u y t y x E &.#.b u u b i t w q q 0 q w u b ] >.0.| x y t w w t y u u u u u 6 2 3 >         ",
"      = 5 6 w H ] s t w 0 u E O.E b u y y u ] ;.0.u.q.@.b y r e w w w w q w b &.=.0.0.O.~ x u t r w u b H E E [ T u t 0 &       ",
"      1 q y T H u q w w 3 q u H H j u y u ] r.4.O.@.r.q.;.u w w t q 6 9 t j E O.&.7.7.&.~ H b y e w V ;.4.>.;.>.0.>.#.] t O     ",
"    @ > t j u w q q q 0 2 4 0 y b i u u H y.7.| T T } 4.r.@.H u t t t j x H E E O.4.0.;.| T b u e y >.y.>.&.&.&.O.| } ] T 4     ",
"    = 2 9 0 7 9 q q 7 5 1 2 4 5 q y j b >.u.&.O.] ] E } #.>.} | } | | H b H E } 7.q.0.;.O.E b u r ] u.>.b u u r q 0 5 : 2 -     ",
"    2 0 w w q 9 7 0 q 4 3 2 > - = 3 0 y q.0.&.] H H ~ O.O.&.:.&.;.&.} H H ] O.r.a.q.0.=.| V y w t =.0.L 3 = %                   ",
"    - 4 3 2 : : 3 7 3 1 2 4 : & * - 1 r :.~ t y j x j T &.#.q.u.>.#.} O.@.>.y.u.y.7.;.O.b u w w b =.] i 3                       ",
"      & * & & 1 4 > 4 0 4 5 2 = = - 3 b O.i = 1 w y j H :.0.q.p.q.>.=.>.q.u.q.7.>.&.T u y t t r ] O.u u t %                     ",
"      @ % % = 4 > 1 w t 0 2 4 * = ; 0 b E y = - 2 w u j O.>.7.u.a.u.a.a.u.0.&.O.T b u y t t r p [ u w w u 9               @     ",
"    + = * ; : 9 1 4 t y q 3 6 = = 2 q j H u ; = ; 3 y E } @.q.d.f.d.u.u.y.7.=.} H H T T j u i ] b w w 0 t u >           # =     ",
"  & ; ; ; ; > q 3 6 t y q 3 5 : > 6 q y b u : - 2 w H @.=.7.p.s.7.] T ] E ] E H H ] H y u b E E u y e w q y w +         : = +   ",
"  - 7 > - - 3 0 2 7 t t 0 2 6 2 5 w q t b b 4 q j } >.q.a.s.a.} u w q q 4 7 b T E u 6 2 4 e x i u y y y w t u 1       ; 2 4 &   ",
"  * 6 5 : = 4 4 1 0 t w 4 2 9 5 4 q w u ] &.E | >.q.u.p.p.q.O.u y e w 0 > 1 6 w q 2 1 2 5 q q u H x y y y t s 0     = 3 6 7 @   ",
"  $ 7 0 1 : 3 2 2 0 t e 4 2 5 q w b ~ } &.y.q.>.y.u.q.q.u.>.] b u y w 6 ; ; ; : 1 1 1 2 6 0 7 0 u T j u y t u t   & 3 7 w 5 +   ",
"  @ 6 6 > : 3 4 3 7 t r 9 3 6 u ] O.[ H E #.u.=.} ] O.:.;.b y u y w q 1 - - - : 2 > : 1 7 5 3 4 q H H y t e y t % 6 7 q 0 2     ",
"  @ 3 > : > 6 0 t e t t t w j ] &.] H H T &.q.q.4.>.;.&.H w e y u i t r w 4 ; ; 3 3 4 4 5 3 2 3 y H j y y e y w 6 q 2 q q =     ",
"    $ - - : 6 q y C x u C E } ] } ~ ~ ] &.&.O.O.O.] [ O.] | &.>.7.>.| V b H u w q 4 2 2 7 3 4 e b j u i u t y 0 q 6 3 r 6 +     ",
"    . - : ; 6 q e u } &.&.&.O.O.} | #.&.T y t x T ~ | O.u t q 7 t T ;.>.| O.>.>.=.E y q w 6 t C H E H H u 0 3 2 0 5 4 w 2 O     ",
"      * ; , 4 9 w t i | =.=.@.&.O.#.] r w 0 e j T ] O.] w 2 9 y u u u ~ >.&.~ ~ } &.=.O.T T $.O.~ H y 0 ; * ; 1 q 5 6 w 2 X     ",
"      & : > 7 0 q r y V ~ ~ | @.] u w q w w e w u b ] E u y i y 0 5 2 1 q H #.&.O.;.7.q.q.>.] u q 2 1 &   * ; ; 7 0 3 w 5       ",
"      % , 3 q q w w u b T E } | b w q 0 0 0 7 q t i ~ H 9 4 4 5 1 ; 2 2 : 1 0 x &.7.>.&.O.i 7 2 2 > =     o # + : q 2 6 q o     ",
"      + < 3 q w w t H H H ~ O.] x u u y w w q 0 i | } H 9 9 q w w 3 > 6 3 2 6 q y y 6 = ; 2 3 4 1 ; O           + 0 q : 2       ",
"        > 2 7 q w u T ] ] #.O.H u u u y i i i V T O.>.[ q w q q y e 6 q w w 0 4 : O       X & ; - @               ; e 2         ",
"        - 2 0 t u b ] &.>.&.H i y t t t y u b #.| O.7.#.t q 0 q r u 0 7 t q %                                     X 9 5         ",
"        * 3 r j V } ;.7.>.H j u r w w w r w b } O.=.>.E y w w w w t 0 3 0 2                                         1 :         ",
"        X 4 j T [ &.#.E j e u y q 0 q q w q r j H | 7.] t 0 w w q w 6 2 7 %                                         *           ",
"          5 b ] @.] y 0 0 q w w 0 6 9 9 0 0 q w t i } b e w 6 0 w q 2 2 1                                                       ",
"          > H ] H y - ; 4 6 9 0 7 6 6 6 9 0 0 0 w u E u 5 7 0 w u b i e 4 *             = 0 j H b u r 4 * .                     ",
"          O t i w -   X > 2 5 6 6 6 9 6 7 8 6 7 q j E y 4 9 u j H | &.#.H u 4       @ t } &.O.| } O.O.} C r %                   ",
"            & 6 -       * 1 4 3 4 6 4 5 6 7 q q q i ~ y w y y y u y u b H H i -   & u ~ E x y t t y s H T H t @                 ",
"              X         . : 3 3 ; 1 2 5 4 7 0 q q e #.] i y t e t t w w r H } y 3 x E u u y w q 0 q w w 0 w t 2                 ",
"                          + 2 5 : ; 1 4 6 9 6 7 0 i 4.&.u e r u u q 0 q 0 y =.p.:.] u t y w w q 0 6 5 q 0 5 3 &                 ",
"                            = 3 2 ; > 3 4 4 4 0 j O.:.>.j u x u 7 3 2 4 0 b &.u.O.u t r e e w q 3 2 5 0 q 6 =                   ",
"                            X : 2 1 w j s H } &.&.&.;.q.T u 0 1 ; : 1 7 u i u T ~ u y t t t w 6 3 3 4 1 ; &                     ",
"                              ; y E &.} E | ~ T H x V :.&.0 2 : > 4 q t e w 5 q H H t y e 0 2 2 3 5 : .                         ",
"                          X 1 u E | j w y q 2 1 5 e y x >.i 4 3 7 q e 7 9 7 3 2 w x i y w q q q 4 =                             ",
"                          & t i i H t t w 3 - # @ + & 2 ] O.j y t u i u t 0 2 1 3 w i u t q 0 6 4 ;                             ",
"                            # 3 0 e 0 2 # X             0 H C H H T H b x u w 6 0 q 0 q 7 3 : * @                               ",
"                                                    * 2 q b V V H j y w w y b b y 4 > : ; * O                                   ",
"                                                  * 6 3 1 2 0 w e w 0 7 0 9 5 q w 0 2 ; %                                       ",
"                                                  @ ; & % * & = ; ; = - 3 - # @ & * +                                           ",
"                                                      X O + + @ % & % * > & +                                                   ",
"                                                                                                                                ",
"                                                                                                                                "
};
